<svg xmlns="http://www.w3.org/2000/svg" viewBox="0 0 444 444"><defs><style>.cls-1{fill:#fff;}</style></defs><title>facebook</title><g id="图层_2" data-name="图层 2"><g id="图层_1-2" data-name="图层 1"><path class="cls-1" d="M426.24,0H17.76A17.75,17.75,0,0,0,0,17.76V426.24A17.75,17.75,0,0,0,17.76,444H426.24A17.75,17.75,0,0,0,444,426.24V17.76A17.75,17.75,0,0,0,426.24,0ZM375,129.59H339.49c-27.8,0-33.19,13.21-33.19,32.64V205h66.38L364,272H306.3V444H237.1V272.06H179.21V205H237.1v-49.4c0-57.33,35-88.58,86.19-88.58A468.42,468.42,0,0,1,375,69.71v59.88Z"/></g></g></svg>