<?xml version="1.0" encoding="utf-8"?>
<!-- Generator: Adobe Illustrator 24.0.3, SVG Export Plug-In . SVG Version: 6.00 Build 0)  -->
<svg version="1.1" id="图层_1" xmlns="http://www.w3.org/2000/svg" xmlns:xlink="http://www.w3.org/1999/xlink" x="0px" y="0px"
	 viewBox="0 0 822.1 1201.5" style="enable-background:new 0 0 822.1 1201.5;" xml:space="preserve">
<style type="text/css">
	.st0{fill:#FFFFFF;}
</style>
<title>资源 1</title>
<g id="图层_2_1_">
	<g id="图层_1-2">
		<path class="st0" d="M639.1,734.6c-4.6-1-7-2.3-9.2-5.5c-7.9-13.2-26.8-10.7-36.8-0.4c-22.4,26.4,15.9,55.3,41.9,45.1
			c24.1-6.9,39.5-31.8,44.5-55.3c4.3-25.3-5.7-53-26.2-68.8C592,604.3,519.6,633.5,471.2,683c-15.6,15.3-24.4,35.4-35.9,53.7
			c-17.9,26.8-35.4,54.8-62.3,73.5c-13.1,9.9-26.8,19.3-43.1,22.3c-16.5,4.9-34.2,9.5-51.5,7.5c-34.6-5-71.9-16.7-91.6-47.7
			c-29.2-32.5-27.1-83.7-6-120.1c9-16.6,19.4-34.4,37.6-42c29.6-15.2,73.2-11.3,92.2,18.6c11.1,12.3,17,32.5,11.8,47.9
			c-44.4-56.5-100.4,17.9-43.9,51.5c57.1,26.6,107.8-33.6,106.2-88.2c-2.7-52.5-41.6-100.6-89.1-121c-43.7-19-94.6-19-140.4-7.8
			c-31.6,11.5-62.8,27.2-89,48.5c-25.3,21.7-42.8,50.7-56.8,80.6c-0.8,2-0.4,5.7-3.6,4.8c-1-0.3-2-3.1-1.8-4.7
			c1.5-14-1.2-27.9-0.9-41.9c-4.2-37.9-4.2-76.1,1.4-113.8c1.2-41.9-1.1-83.9,3-125.6c2.3-34.6-0.2-22.2,40.3-23.5
			c31.8,1.8,63.7,2.2,95.5,4.5c118.9,6,235.9,30.8,349,67.2c44.7,13.3,88.7,28.5,130.8,48.5c46.3,21,91.4,47.7,127,84.4
			c20.8,22.2,44.5,43.7,56.8,72.1c12.8,29.2,18.1,61.5,14.2,93.2c-1,14.3-7.8,27.3-11.8,40.9c-6.9,11.4-13.9,23.3-23.7,32.4
			c-22.8,20.3-49.6,37.3-80.4,41.3c-30.2,5.9-63.5,4.6-92.9-4.8c-29-8-58-28.4-68.6-57.3c-5.7-18.9-5.7-38.1,2.2-56.4
			c3.7-12.1,11.6-22.4,22.7-28.7c23.8-14.8,55.8-7.3,65.6,20.3C636.3,720,637.3,727,639.1,734.6z"/>
		<path class="st0" d="M817.3,9c3,11.2,1.3,22.1-0.9,32.5c-3.7,13.3-0.7,26.8-2.9,40.3c-2.5,45.7,1.1,92.1-0.3,138
			c0.8,49.2,9.1,29.8-52.9,25.9c-9.2,1.1-18.1-0.6-27.2-1.6c-18.6-0.3-37.3-0.6-55.9-3c-34.9-1.2-70,0-104.9-3.1
			c-15.3-0.7-30.5-0.7-45.7,0.6c-6.6-2.6-13.2,0.5-19.7-0.1c-4.6-0.4-9.3-1.2-13.9-1.3c-42.4,0.3-84.7,4.2-127,7.5
			c-61.4,6.6-122.2,19.2-184.2,20.1c-54.7-4.6-107.9-20.3-162.9-21.7c-1-0.4-1.8-1.2-2.1-2.3c-0.9-15-0.3-30.1,0-45.2
			c-1.5-43.1-3.4-86.2-4.7-129.4C5.1-18-1.2,4.1,52.8,11.6c22.7,4.3,46.3,7.4,69.5,5.8c43.1,0.7,85.1-10.6,128.2-12
			C266.7,4.1,283.1,6,299.3,6c24.9-1.8,49.9-2.9,74.7-5.1c45.3-1.7,92-1.1,137.2,1.3c14.5,1.3,29,0.3,43.4,0.3
			c18.5,0.3,36.8,3.7,55.3,3.6c31.1,2.5,62.1-0.4,93.2,2.4c23,3.1,46,5.8,69.2,5.8C787.7,14.7,802.3,11,817.3,9z M115.4,168.9
			l0.7,0.8c11.6-5.2,24.6-6.3,36.7-10.1c7.7-2.2,15.7-2.9,23.6-2.1c29.4,1.2,58.7,3,87.3,10.6c12.4,2.3,23.9,12.2,36.3,13
			c8.3-2.3,16.1-6,24.3-8.8c10.3-4.6,24.4-1.7,30.7-13c9.7-20.4,22.8-39,36-57.3c18.8-25.9,47-42.3,72.6-60.5
			c-13.1-3.5-25.8,0.7-38.4,3.6c-50,13.2-97.2,37.9-133.8,74.6c-9.5,11.9-25.5,5.3-38.5,5.7c-23.2-1.5-46.3,4.9-68.8,9.8
			C158.8,140.4,134.7,151.8,115.4,168.9z"/>
		<path class="st0" d="M17.5,266.9c6.3-7.7,29.2,1,39,0.2c23.9,3.6,48.2,3.3,71.8,9c78.8,6.5,158,16.2,237,7.8
			c31.3-1.4,61.8-5.7,93-7.8c28.7-0.5,57.3-5.9,85.9-4.5c54.4-0.1,108.6,4.8,163.1,5.3c24.9,2,49.8,4.7,74.8,3.6
			c9.9-0.3,19.8-1,29.7-1.4c5.1-0.2,5.9,0.8,5.8,5.9c-0.8,18.4,1.7,36.8,0,55.4c-1.8,14.6-3.3,29.8,0.9,44.2
			c2.1,5.6,3.4,11.4,1.5,17.2c0.2,3.9,1,7.8,1.5,11.8c0.3,3.3,2.2,8.9-1.9,10.2c-11.8-2-23.2-5.3-34.1-10.3
			c-11.2-4.8-22.9-8.3-34.9-10.7c-26.4-7.4-52.6-15.5-79.6-20.2c-20.7-5.1-41.9-7.4-63.3-9.2c-35.2-4.3-70.1-10.8-105.7-11.8
			c-21.2-1.6-41.7-5.2-62.2-10.3c-15.8-2.4-31.9-3.6-47.4-7.9c-26.3-5.1-52.9-5.9-79.5-9.1c-23.8-1.8-48.2,1.3-72.1,0.4
			c-18.1-0.4-35.9-6.4-54-4.6c-28.4-1.4-56.7,0.5-85-1.9c-13.9,0.3-28,4.9-41.7,3.1c-2.3-0.7-5.4,1-8.2,1.5
			c-1.2,0.2-2.7,0.7-3.6,0.3c-4.2-2-8.4-1-12.7-0.7c-4.7,0.4-9.6-0.5-14.3,0.2c-14.4,3.9-7.9-13.2-5.6-20.7
			C18.8,296.8,13.6,281.7,17.5,266.9z"/>
		<path class="st0" d="M794.6,1045.2c-3.7,119.9-126.4,191.3-233.2,138.8c-111.5-60.1-116.2-211.7-4.6-274.5
			c105.9-56.2,233.7,14.7,237.2,135.7L794.6,1045.2z M536.3,1045.2c2.6,63.4,64.1,111.4,125.6,92.1c76.7-21.2,94.9-125.4,28.2-169.7
			c-40.1-29.5-101.1-19.9-131.7,18.8C543.4,1001.9,539.5,1025.4,536.3,1045.2L536.3,1045.2z"/>
		<path class="st0" d="M173.6,1072.2c-22.6-1.4-41.6-1-63.6-0.5c-4.9,0.1-9.8,0-14.7,0c-4.7,0-5.1,0.4-3.7,4.9
			c8.5,24.5,29.3,42.7,53,52c22.5,11.5,59.8-2.4,65.6,32.3c5.4,24.1-21,40.8-42.4,35.4c-93.9-7.5-164.6-97-142.9-190
			C37,952.9,80,907.8,132.4,891.8c18.1-6.2,57.6-15.1,71.5,1c17.6,16.4,7.3,49-17.2,51.4c-20,2.2-40.8,2.9-57.5,15.9
			c-6.6,4.3-12.9,9.3-18.7,14.7c-4.6,4.2-30.8,36-13.5,34.7c17.1-0.1,34.3,0.5,51.4,0.7c18.2,1.9,41.7-5.9,55.2,9.9
			c15.5,15.8,7.3,46.2-15.5,50.1C182.7,1071.5,177.1,1071.8,173.6,1072.2z"/>
		<path class="st0" d="M451.9,914.4c-6,39.5-40.5,25.9-68,35.1c-40.5,12-69.4,53.2-66,95.3c1.3,43.7,36.7,80.7,79.3,87.6
			c15.2,3.1,34-1.9,44.7,11.8c9.7,10.9,9.5,28.6-0.2,39.1c-8.4,10.1-23,11.4-35.3,10.1c-32.1-1.6-63.2-12.7-89.2-31.8
			c-77-58.5-83-172.6-10.1-236.9c25-22.3,57.7-38.4,91.6-39.9C423.9,881.8,449.3,882.9,451.9,914.4z"/>
	</g>
</g>
</svg>
