<svg xmlns="http://www.w3.org/2000/svg" viewBox="0 0 45 45"><defs><style>.cls-1{fill:#fff;}</style></defs><title>twitter</title><g id="图层_2" data-name="图层 2"><g id="图层_1-2" data-name="图层 1"><path class="cls-1" d="M43.2,0H1.8A1.79,1.79,0,0,0,0,1.8V43.2A1.79,1.79,0,0,0,1.8,45H43.2A1.79,1.79,0,0,0,45,43.2V1.8A1.79,1.79,0,0,0,43.2,0ZM34.61,16.3c0,.26,0,.54,0,.81,0,8.25-6.29,17.77-17.78,17.77a17.66,17.66,0,0,1-9.6-2.81,12.62,12.62,0,0,0,1.51.08,12.55,12.55,0,0,0,7.75-2.66,6.25,6.25,0,0,1-5.83-4.33A6.69,6.69,0,0,0,13.49,25,6.18,6.18,0,0,1,9.9,22.87a6.29,6.29,0,0,1-1.41-4v-.08a6.24,6.24,0,0,0,2.82.8,6.29,6.29,0,0,1-2-2.25,6.21,6.21,0,0,1-.74-2.95,6.06,6.06,0,0,1,.85-3.15,17.65,17.65,0,0,0,5.74,4.63,17.76,17.76,0,0,0,7.14,1.9,6.26,6.26,0,0,1,10.66-5.72,12.22,12.22,0,0,0,4-1.5A6.23,6.23,0,0,1,34.14,14a12.45,12.45,0,0,0,3.6-1A13.38,13.38,0,0,1,34.61,16.3Z"/></g></g></svg>